<svg width="126" height="126" viewBox="0 0 126 126" fill="none" xmlns="http://www.w3.org/2000/svg">
<g clip-path="url(#clip0)">
<path opacity="0.25" d="M111.268 16.0685C107.826 16.2597 105.293 16.6421 103.667 17.2158C102.138 17.7894 101.086 18.8888 100.512 20.5141C99.9389 22.1394 99.652 24.7685 99.652 28.4014V99.5309C99.652 103.164 99.9389 105.793 100.512 107.418C101.086 109.044 102.138 110.143 103.667 110.717C105.293 111.29 107.826 111.673 111.268 111.864V114.732C107.253 114.445 101.134 114.302 92.912 114.302C85.168 114.302 79.0972 114.445 74.6994 114.732V111.864C78.1411 111.673 80.6268 111.29 82.1565 110.717C83.7818 110.143 84.8812 109.044 85.4548 107.418C86.0285 105.793 86.3153 103.164 86.3153 99.5309V65.1134H39.7083V99.5309C39.7083 103.164 39.9951 105.793 40.5687 107.418C41.1423 109.044 42.194 110.143 43.7236 110.717C45.3489 111.29 47.8824 111.673 51.3242 111.864V114.732C46.9264 114.445 40.8555 114.302 33.1116 114.302C24.8896 114.302 18.771 114.445 14.7556 114.732V111.864C18.1973 111.673 20.683 111.29 22.2127 110.717C23.838 110.143 24.9374 109.044 25.511 107.418C26.0847 105.793 26.3715 103.164 26.3715 99.5309V28.4014C26.3715 24.7685 26.0847 22.1394 25.511 20.5141C24.9374 18.8888 23.838 17.7894 22.2127 17.2158C20.683 16.6421 18.1973 16.2597 14.7556 16.0685V13.2004C18.771 13.4872 24.8896 13.6306 33.1116 13.6306C40.7599 13.6306 46.8308 13.4872 51.3242 13.2004V16.0685C47.8824 16.2597 45.3489 16.6421 43.7236 17.2158C42.194 17.7894 41.1423 18.8888 40.5687 20.5141C39.9951 22.1394 39.7083 24.7685 39.7083 28.4014V62.2453H86.3153V28.4014C86.3153 24.7685 86.0285 22.1394 85.4548 20.5141C84.8812 18.8888 83.7818 17.7894 82.1565 17.2158C80.6268 16.6421 78.1411 16.2597 74.6994 16.0685V13.2004C79.0972 13.4872 85.168 13.6306 92.912 13.6306C101.134 13.6306 107.253 13.4872 111.268 13.2004V16.0685Z" fill="white"/>
<path d="M22.5317 80.1658C22.5914 80.1658 22.6422 80.1867 22.684 80.2285L23.0426 80.6139C22.7797 80.8948 22.4928 81.1487 22.1821 81.3758C21.8774 81.5969 21.5398 81.7881 21.1693 81.9494C20.8048 82.1048 20.4015 82.2243 19.9593 82.3079C19.5231 82.3976 19.0421 82.4424 18.5163 82.4424C17.6379 82.4424 16.8313 82.29 16.0963 81.9853C15.3673 81.6746 14.7399 81.2384 14.2141 80.6767C13.6883 80.109 13.279 79.4249 12.9862 78.6242C12.6994 77.8235 12.556 76.9332 12.556 75.9532C12.556 74.9912 12.7054 74.1129 13.0041 73.3182C13.3029 72.5234 13.7212 71.8423 14.2589 71.2746C14.7967 70.701 15.442 70.2588 16.1949 69.9481C16.9478 69.6314 17.7784 69.4731 18.6866 69.4731C19.553 69.4731 20.3208 69.6075 20.9901 69.8764C21.6593 70.1453 22.2688 70.5247 22.8185 71.0147L22.5406 71.418C22.4928 71.4897 22.4181 71.5256 22.3166 71.5256C22.2449 71.5256 22.1283 71.4599 21.967 71.3284C21.8057 71.1969 21.5816 71.0535 21.2948 70.8982C21.008 70.7368 20.6495 70.5905 20.2193 70.459C19.795 70.3275 19.2841 70.2618 18.6866 70.2618C17.9218 70.2618 17.2197 70.3933 16.5803 70.6562C15.9469 70.9191 15.4002 71.2955 14.9401 71.7855C14.486 72.2755 14.1305 72.873 13.8735 73.5781C13.6166 74.2832 13.4881 75.0749 13.4881 75.9532C13.4881 76.8495 13.6166 77.6502 13.8735 78.3553C14.1364 79.0604 14.495 79.6579 14.9491 80.1479C15.4032 80.6319 15.938 81.0053 16.5534 81.2682C17.1749 81.5252 17.8441 81.6536 18.5611 81.6536C19.0152 81.6536 19.4186 81.6238 19.7711 81.564C20.1296 81.5043 20.4583 81.4146 20.757 81.2951C21.0558 81.1756 21.3336 81.0292 21.5906 80.8559C21.8475 80.6827 22.1015 80.4795 22.3524 80.2465C22.3823 80.2226 22.4122 80.2046 22.4421 80.1927C22.4719 80.1748 22.5018 80.1658 22.5317 80.1658ZM37.1731 77.692L34.5918 71.2836C34.5022 71.0744 34.4155 70.8235 34.3319 70.5307C34.296 70.6741 34.2572 70.8115 34.2154 70.943C34.1735 71.0685 34.1287 71.185 34.0809 71.2925L31.4996 77.692H37.1731ZM39.9785 82.299H39.2704C39.1868 82.299 39.1181 82.2781 39.0643 82.2362C39.0105 82.1884 38.9687 82.1287 38.9388 82.057L37.451 78.3732H31.2218L29.7339 82.057C29.71 82.1227 29.6682 82.1795 29.6084 82.2273C29.5487 82.2751 29.477 82.299 29.3933 82.299H28.6942L33.8837 69.6165H34.789L39.9785 82.299ZM53.0782 71.1581C53.0244 71.2597 52.9467 71.3105 52.8451 71.3105C52.7675 71.3105 52.6659 71.2567 52.5404 71.1491C52.4209 71.0356 52.2566 70.9131 52.0474 70.7817C51.8383 70.6442 51.5754 70.5187 51.2587 70.4052C50.948 70.2917 50.5626 70.2349 50.1025 70.2349C49.6424 70.2349 49.2361 70.3007 48.8835 70.4321C48.537 70.5636 48.2442 70.7428 48.0052 70.9699C47.7721 71.1969 47.5929 71.4599 47.4674 71.7586C47.3479 72.0574 47.2882 72.3711 47.2882 72.6997C47.2882 73.1299 47.3778 73.4855 47.557 73.7663C47.7423 74.0471 47.9843 74.2861 48.283 74.4833C48.5818 74.6805 48.9194 74.8478 49.2958 74.9853C49.6783 75.1167 50.0696 75.2482 50.47 75.3796C50.8703 75.5111 51.2587 75.6575 51.6352 75.8188C52.0176 75.9742 52.3582 76.1713 52.6569 76.4104C52.9557 76.6494 53.1947 76.9451 53.374 77.2977C53.5592 77.6442 53.6518 78.0774 53.6518 78.5973C53.6518 79.1291 53.5592 79.631 53.374 80.1031C53.1947 80.5691 52.9318 80.9754 52.5852 81.322C52.2387 81.6686 51.8144 81.9434 51.3125 82.1466C50.8106 82.3438 50.2369 82.4424 49.5916 82.4424C48.7551 82.4424 48.0351 82.296 47.4316 82.0032C46.8281 81.7044 46.2992 81.2981 45.8451 80.7842L46.0961 80.3899C46.1678 80.3002 46.2514 80.2554 46.3471 80.2554C46.4008 80.2554 46.4695 80.2913 46.5532 80.363C46.6369 80.4347 46.7384 80.5243 46.8579 80.6319C46.9774 80.7335 47.1208 80.847 47.2882 80.9725C47.4555 81.092 47.6497 81.2055 47.8707 81.3131C48.0918 81.4146 48.3458 81.5013 48.6326 81.573C48.9194 81.6447 49.2451 81.6805 49.6095 81.6805C50.1115 81.6805 50.5596 81.6058 50.954 81.4565C51.3483 81.3011 51.68 81.092 51.9489 80.8291C52.2237 80.5661 52.4329 80.2554 52.5763 79.8969C52.7197 79.5324 52.7914 79.144 52.7914 78.7317C52.7914 78.2836 52.6987 77.9161 52.5135 77.6293C52.3343 77.3365 52.0952 77.0945 51.7965 76.9033C51.4977 76.7061 51.1571 76.5418 50.7747 76.4104C50.3983 76.2789 50.0099 76.1504 49.6095 76.0249C49.2092 75.8995 48.8178 75.759 48.4354 75.6037C48.059 75.4483 47.7214 75.2512 47.4226 75.0121C47.1238 74.7672 46.8818 74.4654 46.6966 74.1069C46.5173 73.7424 46.4277 73.2883 46.4277 72.7445C46.4277 72.3203 46.5084 71.911 46.6697 71.5166C46.831 71.1222 47.0671 70.7757 47.3778 70.4769C47.6885 70.1722 48.0709 69.9302 48.525 69.7509C48.9851 69.5657 49.508 69.4731 50.0935 69.4731C50.7508 69.4731 51.3394 69.5776 51.8592 69.7868C52.385 69.9959 52.8631 70.3156 53.2933 70.7458L53.0782 71.1581ZM67.9998 77.692L65.4185 71.2836C65.3289 71.0744 65.2423 70.8235 65.1586 70.5307C65.1228 70.6741 65.0839 70.8115 65.0421 70.943C65.0003 71.0685 64.9555 71.185 64.9076 71.2925L62.3263 77.692H67.9998ZM70.8052 82.299H70.0972C70.0135 82.299 69.9448 82.2781 69.891 82.2362C69.8372 82.1884 69.7954 82.1287 69.7655 82.057L68.2777 78.3732H62.0485L60.5606 82.057C60.5367 82.1227 60.4949 82.1795 60.4352 82.2273C60.3754 82.2751 60.3037 82.299 60.2201 82.299H59.521L64.7105 69.6165H65.6157L70.8052 82.299ZM97.5425 75.9532C97.5425 76.9332 97.3961 77.8145 97.1033 78.5973C96.8105 79.3801 96.3982 80.0463 95.8664 80.596C95.3346 81.1457 94.6953 81.567 93.9484 81.8598C93.2074 82.1526 92.3888 82.299 91.4925 82.299H86.8587V69.6165H91.4925C92.3888 69.6165 93.2074 69.7629 93.9484 70.0557C94.6953 70.3485 95.3346 70.7697 95.8664 71.3194C96.3982 71.8692 96.8105 72.5354 97.1033 73.3182C97.3961 74.1009 97.5425 74.9793 97.5425 75.9532ZM96.5924 75.9532C96.5924 75.0689 96.4699 74.2802 96.2249 73.587C95.98 72.8939 95.6334 72.3083 95.1853 71.8303C94.7371 71.3523 94.1993 70.9878 93.5719 70.7368C92.9445 70.4859 92.2514 70.3604 91.4925 70.3604H87.7819V81.555H91.4925C92.2514 81.555 92.9445 81.4296 93.5719 81.1786C94.1993 80.9276 94.7371 80.5632 95.1853 80.0851C95.6334 79.6071 95.98 79.0215 96.2249 78.3284C96.4699 77.6353 96.5924 76.8436 96.5924 75.9532ZM112.937 81.5371L112.919 82.299H105.318V69.6165H112.919V70.3783H106.241V75.5051H111.798V76.249H106.241V81.5371H112.937ZM20.2558 91.6165V104.299H19.3326V98.2221H11.3915V104.299H10.4683V91.6165H11.3915V97.532H19.3326V91.6165H20.2558ZM29.9874 103.645C30.5969 103.645 31.1406 103.54 31.6186 103.331C32.1026 103.116 32.5119 102.82 32.8466 102.444C33.1812 102.067 33.4351 101.625 33.6084 101.117C33.7877 100.603 33.8773 100.051 33.8773 99.459V91.6165H34.7915V99.459C34.7915 100.158 34.681 100.812 34.4599 101.422C34.2388 102.025 33.9191 102.554 33.5009 103.008C33.0886 103.456 32.5836 103.809 31.9861 104.066C31.3946 104.323 30.7283 104.451 29.9874 104.451C29.2465 104.451 28.5772 104.323 27.9797 104.066C27.3882 103.809 26.8833 103.456 26.465 103.008C26.0527 102.554 25.736 102.025 25.5149 101.422C25.2938 100.812 25.1833 100.158 25.1833 99.459V91.6165H26.1065V99.45C26.1065 100.042 26.1931 100.594 26.3664 101.108C26.5457 101.616 26.7996 102.058 27.1282 102.435C27.4629 102.811 27.8692 103.107 28.3472 103.322C28.8312 103.537 29.3779 103.645 29.9874 103.645ZM52.2434 91.6165V104.299H51.4457V93.4897C51.4457 93.3344 51.4546 93.1701 51.4726 92.9968L46.4802 101.861C46.3966 102.016 46.2771 102.094 46.1217 102.094H45.9783C45.823 102.094 45.7034 102.016 45.6198 101.861L40.493 92.9788C40.5109 93.1581 40.5199 93.3284 40.5199 93.4897V104.299H39.7133V91.6165H40.3496C40.4333 91.6165 40.499 91.6254 40.5468 91.6434C40.5946 91.6613 40.6424 91.7091 40.6902 91.7868L45.808 100.606C45.8976 100.774 45.9753 100.953 46.041 101.144C46.0769 101.048 46.1157 100.956 46.1576 100.866C46.1994 100.771 46.2442 100.681 46.292 100.597L51.2664 91.7868C51.3142 91.7091 51.362 91.6613 51.4098 91.6434C51.4636 91.6254 51.5323 91.6165 51.616 91.6165H52.2434ZM61.4429 103.564C62.5543 103.564 63.3939 103.325 63.9615 102.847C64.5351 102.363 64.8219 101.685 64.8219 100.812C64.8219 100.412 64.7443 100.054 64.5889 99.7369C64.4395 99.4142 64.2214 99.1423 63.9346 98.9212C63.6478 98.6942 63.2953 98.5209 62.877 98.4014C62.4587 98.2819 61.9837 98.2221 61.4519 98.2221H58.2611V103.564H61.4429ZM58.2611 92.3425V97.5499H61.0037C61.5893 97.5499 62.0883 97.4752 62.5005 97.3258C62.9188 97.1765 63.2594 96.9793 63.5223 96.7343C63.7912 96.4893 63.9884 96.2115 64.1139 95.9007C64.2394 95.59 64.3021 95.2704 64.3021 94.9417C64.3021 94.0873 64.0302 93.4419 63.4865 93.0057C62.9487 92.5636 62.1151 92.3425 60.9858 92.3425H58.2611ZM60.9858 91.6165C61.7088 91.6165 62.3362 91.6882 62.868 91.8316C63.3998 91.975 63.839 92.1871 64.1856 92.468C64.5321 92.7428 64.7891 93.0804 64.9564 93.4808C65.1237 93.8811 65.2073 94.3352 65.2073 94.8431C65.2073 95.1777 65.1476 95.5004 65.0281 95.8111C64.9146 96.1218 64.7472 96.4086 64.5262 96.6716C64.3111 96.9345 64.0422 97.1645 63.7195 97.3617C63.4028 97.5529 63.0383 97.6993 62.626 97.8009C63.6239 97.9443 64.3887 98.2759 64.9205 98.7958C65.4583 99.3096 65.7272 99.9878 65.7272 100.83C65.7272 101.368 65.6316 101.852 65.4404 102.282C65.2492 102.713 64.9713 103.077 64.6068 103.376C64.2423 103.675 63.7942 103.905 63.2624 104.066C62.7306 104.221 62.1271 104.299 61.4519 104.299H57.3379V91.6165H60.9858ZM77.627 103.537L77.609 104.299H70.0085V91.6165H77.609V92.3783H70.9317V97.5051H76.4887V98.249H70.9317V103.537H77.627ZM84.8704 97.8815C85.4321 97.8815 85.934 97.8158 86.3761 97.6844C86.8243 97.5469 87.2007 97.3527 87.5055 97.1018C87.8162 96.8508 88.0522 96.5491 88.2135 96.1965C88.3749 95.844 88.4555 95.4466 88.4555 95.0045C88.4555 94.1022 88.1598 93.433 87.5682 92.9968C86.9826 92.5606 86.1252 92.3425 84.9959 92.3425H82.6745V97.8815H84.8704ZM90.4991 104.299H89.7103C89.6088 104.299 89.5221 104.284 89.4504 104.254C89.3847 104.218 89.3219 104.156 89.2622 104.066L85.193 98.9212C85.1452 98.8555 85.0945 98.7987 85.0407 98.7509C84.9929 98.7031 84.9361 98.6673 84.8704 98.6434C84.8106 98.6135 84.7359 98.5926 84.6463 98.5806C84.5627 98.5687 84.4581 98.5627 84.3326 98.5627H82.6745V104.299H81.7513V91.6165H84.9959C86.4538 91.6165 87.5443 91.9003 88.2673 92.468C88.9963 93.0296 89.3608 93.8572 89.3608 94.9507C89.3608 95.4347 89.2771 95.8768 89.1098 96.2772C88.9425 96.6775 88.7005 97.0301 88.3838 97.3348C88.0731 97.6336 87.6937 97.8786 87.2455 98.0698C86.8034 98.261 86.3044 98.3894 85.7487 98.4552C85.8921 98.5448 86.0206 98.6643 86.1341 98.8137L90.4991 104.299ZM101.705 92.3963H97.2504V104.299H96.3272V92.3963H91.8457V91.6165H101.705V92.3963ZM115.715 97.9532C115.715 98.9332 115.569 99.8235 115.276 100.624C114.983 101.419 114.571 102.1 114.039 102.668C113.508 103.229 112.868 103.666 112.121 103.976C111.38 104.281 110.562 104.433 109.665 104.433C108.769 104.433 107.951 104.281 107.21 103.976C106.469 103.666 105.832 103.229 105.301 102.668C104.769 102.1 104.356 101.419 104.064 100.624C103.771 99.8235 103.625 98.9332 103.625 97.9532C103.625 96.9793 103.771 96.0949 104.064 95.3002C104.356 94.4995 104.769 93.8184 105.301 93.2567C105.832 92.689 106.469 92.2499 107.21 91.9391C107.951 91.6284 108.769 91.4731 109.665 91.4731C110.562 91.4731 111.38 91.6284 112.121 91.9391C112.868 92.2439 113.508 92.6801 114.039 93.2477C114.571 93.8154 114.983 94.4995 115.276 95.3002C115.569 96.0949 115.715 96.9793 115.715 97.9532ZM114.765 97.9532C114.765 97.0689 114.643 96.2742 114.398 95.5691C114.153 94.864 113.806 94.2665 113.358 93.7765C112.91 93.2866 112.372 92.9131 111.745 92.6562C111.117 92.3933 110.424 92.2618 109.665 92.2618C108.913 92.2618 108.222 92.3933 107.595 92.6562C106.968 92.9131 106.427 93.2866 105.973 93.7765C105.525 94.2665 105.175 94.864 104.924 95.5691C104.679 96.2742 104.557 97.0689 104.557 97.9532C104.557 98.8436 104.679 99.6413 104.924 100.346C105.175 101.045 105.525 101.64 105.973 102.13C106.427 102.62 106.968 102.993 107.595 103.25C108.222 103.507 108.913 103.636 109.665 103.636C110.424 103.636 111.117 103.507 111.745 103.25C112.372 102.993 112.91 102.62 113.358 102.13C113.806 101.64 114.153 101.045 114.398 100.346C114.643 99.6413 114.765 98.8436 114.765 97.9532Z" fill="white"/>
</g>
<defs>
<clipPath id="clip0">
<rect width="126" height="124.701" fill="white" transform="translate(0 0.649483)"/>
</clipPath>
</defs>
</svg>
